<?xml version="1.0" standalone="no"?>
<!DOCTYPE svg PUBLIC "-//W3C//DTD SVG 20010904//EN"
 "http://www.w3.org/TR/2001/REC-SVG-20010904/DTD/svg10.dtd">
<svg version="1.0" xmlns="http://www.w3.org/2000/svg"
 width="1024.000000pt" height="1024.000000pt" viewBox="0 0 1024.000000 1024.000000"
 preserveAspectRatio="xMidYMid meet">

<g transform="translate(0.000000,1024.000000) scale(0.100000,-0.100000)"
fill="#000000" stroke="none">
<path d="M4955 7834 c-82 -30 -253 -91 -380 -135 -341 -120 -1257 -449 -1423
-512 -45 -17 -79 -34 -74 -39 13 -13 898 -348 920 -348 11 0 52 14 93 31 344
141 677 210 1029 211 353 2 680 -65 981 -198 57 -25 113 -47 124 -48 18 -2 92
25 405 147 63 24 116 43 118 42 2 -2 4 -37 6 -79 l2 -76 -33 -20 c-53 -31 -69
-101 -37 -162 18 -35 17 -41 -32 -247 -32 -135 -33 -146 -18 -160 9 -9 14 -10
10 -3 -4 7 -1 12 8 12 12 0 13 -5 4 -30 -5 -17 -7 -42 -3 -57 6 -23 -19 -51
-282 -317 -377 -380 -604 -614 -901 -929 -248 -261 -324 -335 -167 -162 49 55
83 101 79 107 -4 6 -3 8 3 5 6 -4 17 1 24 11 12 15 12 16 -1 6 -8 -6 -24 -10
-35 -8 -71 12 -68 14 -144 -60 l-75 -71 75 84 c128 145 500 531 879 912 201
202 340 345 310 319 -30 -27 -75 -69 -100 -94 -24 -25 -50 -46 -57 -46 -8 0
-17 -8 -20 -17 -8 -21 -54 -63 -68 -63 -6 0 -16 5 -23 10 -6 6 -10 7 -7 4 9
-12 -17 -34 -40 -34 -12 0 -39 -11 -60 -25 -31 -22 -40 -24 -53 -13 -13 11
-14 11 -7 -1 6 -11 4 -13 -8 -8 -9 3 -17 2 -19 -3 -2 -5 -14 -11 -28 -14 -15
-2 -24 -9 -22 -17 2 -8 0 -11 -4 -7 -4 4 -13 3 -20 -3 -8 -7 -14 -6 -20 2 -5
8 -3 9 6 4 8 -5 11 -4 7 2 -5 7 -20 4 -44 -8 -28 -15 -39 -16 -45 -6 -4 6 -8
7 -8 1 0 -5 5 -15 11 -21 9 -9 2 -9 -24 -3 -23 5 -39 4 -46 -3 -8 -8 -11 -7
-11 3 0 10 -4 9 -18 -3 -24 -22 -36 -22 -28 -1 5 14 4 15 -9 4 -8 -7 -12 -17
-8 -23 3 -6 1 -7 -6 -3 -6 4 -8 13 -4 19 4 7 -3 6 -17 -3 -15 -9 -48 -15 -82
-14 -31 0 -55 -3 -52 -8 3 -4 -6 -8 -20 -8 -13 0 -26 6 -29 13 -3 9 -10 7 -25
-6 -11 -10 -26 -19 -34 -21 -54 -8 -137 -84 -428 -391 -47 -50 -78 -81 -71
-70 8 11 28 34 44 52 19 20 27 38 23 48 -3 9 -2 13 4 10 6 -3 10 2 10 12 0 13
3 14 8 5 6 -9 16 -4 37 18 16 16 25 30 20 30 -4 0 -13 -7 -20 -17 -16 -22 -45
-10 -45 18 0 13 7 31 17 41 9 10 14 18 11 18 -3 0 -75 -75 -159 -167 -85 -92
-176 -190 -203 -218 -89 -91 202 237 386 436 60 64 108 119 108 123 0 3 -338
6 -750 6 -708 0 -750 -1 -740 -18 6 -9 32 -46 58 -82 l48 -65 535 -5 534 -5
-65 -70 c-36 -39 -106 -117 -156 -175 -242 -277 -619 -708 -799 -914 -110
-125 -206 -237 -214 -248 -12 -16 -74 -249 -68 -254 4 -3 426 104 552 141 283
81 626 185 735 223 227 78 525 207 611 265 26 17 152 145 280 282 353 381 872
954 890 983 9 15 33 107 54 205 31 143 41 177 53 172 30 -11 178 -6 217 8 80
29 95 39 95 64 0 14 -16 86 -35 161 -19 75 -45 184 -58 242 -22 103 -23 107
-5 135 34 57 11 153 -42 170 -19 6 -21 12 -18 107 l3 101 145 58 c80 32 156
61 170 65 l25 6 -30 13 c-16 8 -127 47 -245 89 -202 70 -392 138 -1370 484
-217 77 -402 143 -410 146 -8 3 -82 -20 -165 -50z m-816 -387 c-85 -51 -193
-118 -241 -149 l-88 -55 145 -88 c80 -48 144 -89 142 -91 -2 -2 -151 30 -332
71 -181 41 -338 75 -349 75 -11 0 -16 4 -11 8 15 12 853 319 879 321 5 1 -60
-41 -145 -92z m2711 -902 c0 -47 -3 -85 -6 -85 -3 0 -14 19 -24 43 -15 33 -17
51 -10 81 7 33 6 37 -5 25 -9 -9 -16 -55 -21 -137 -4 -68 -10 -119 -15 -115
-12 12 -39 169 -39 224 l0 49 60 0 60 0 0 -85z m-150 -315 c-6 -11 -13 -20
-15 -20 -3 0 -5 9 -5 20 0 11 7 20 15 20 13 0 14 -4 5 -20z m-540 -414 c0 -2
-8 -10 -17 -17 -16 -13 -17 -12 -4 4 13 16 21 21 21 13z m-1580 -839 c0 -2
-15 -16 -32 -33 l-33 -29 29 33 c28 30 36 37 36 29z m640 -330 c0 -2 -19 -21
-42 -42 l-43 -40 40 43 c36 39 45 47 45 39z"/>
<path d="M6820 6542 c0 -17 4 -33 9 -36 10 -7 9 49 -2 60 -4 4 -7 -7 -7 -24z"/>
<path d="M4970 6973 c-348 -34 -559 -81 -813 -182 l-122 -48 -32 -179 c-18
-98 -32 -189 -33 -201 l0 -23 1166 0 c1105 0 1165 1 1160 18 -3 9 -19 103 -37
207 -17 105 -37 195 -43 201 -17 18 -238 92 -369 124 -268 66 -669 104 -877
83z"/>
<path d="M6584 6208 l-19 -21 28 18 c28 18 33 25 19 25 -5 0 -17 -10 -28 -22z"/>
<path d="M5989 6093 c-13 -16 -12 -17 4 -4 9 7 17 15 17 17 0 8 -8 3 -21 -13z"/>
<path d="M8167 5766 c-45 -17 -70 -38 -98 -83 l-21 -33 -244 0 -245 0 -161
-152 c-89 -84 -177 -168 -197 -186 l-36 -33 40 5 c22 3 67 6 99 6 l59 0 127
125 126 125 221 0 222 0 16 -28 c44 -74 155 -103 229 -60 49 29 75 63 87 117
18 81 -20 158 -95 192 -48 22 -77 23 -129 5z m108 -99 c39 -33 39 -91 1 -123
-35 -31 -76 -31 -110 1 -79 73 28 192 109 122z"/>
<path d="M5025 5470 c-3 -5 -1 -10 4 -10 6 0 11 5 11 10 0 6 -2 10 -4 10 -3 0
-8 -4 -11 -10z"/>
<path d="M6743 5362 c-102 -85 -104 -82 40 -82 l125 0 49 39 c26 21 59 50 72
65 l24 26 -126 0 -126 0 -58 -48z"/>
<path d="M2983 5283 c15 -2 39 -2 55 0 15 2 2 4 -28 4 -30 0 -43 -2 -27 -4z"/>
<path d="M3478 5283 c7 -3 16 -2 19 1 4 3 -2 6 -13 5 -11 0 -14 -3 -6 -6z"/>
<path d="M7830 5253 c-31 -12 -72 -47 -90 -75 l-17 -29 -350 1 -351 0 -58 -47
-59 -48 57 -3 57 -3 212 -214 213 -215 327 0 327 0 12 -29 c38 -93 156 -129
248 -75 78 46 104 149 59 234 -59 112 -232 120 -298 13 l-21 -33 -291 0 -292
1 -157 154 -157 155 260 0 259 0 19 -39 c37 -72 132 -108 206 -77 52 22 74 43
96 91 54 116 -27 246 -151 244 -25 0 -52 -3 -60 -6z m119 -109 c26 -34 27 -74
1 -107 -26 -33 -63 -41 -101 -22 -81 42 -52 155 40 155 31 0 44 -6 60 -26z
m373 -421 c37 -36 37 -75 -1 -114 -33 -32 -58 -36 -100 -14 -32 16 -41 33 -41
74 0 75 86 108 142 54z"/>
<path d="M2658 5043 c12 -2 32 -2 45 0 12 2 2 4 -23 4 -25 0 -35 -2 -22 -4z"/>
<path d="M2317 4999 c7 -7 15 -10 18 -7 3 3 -2 9 -12 12 -14 6 -15 5 -6 -5z"/>
<path d="M2429 4943 c-13 -17 -13 -17 6 -3 11 8 22 16 24 17 2 2 0 3 -6 3 -6
0 -17 -8 -24 -17z"/>
<path d="M1854 4788 l-19 -23 23 19 c21 18 27 26 19 26 -2 0 -12 -10 -23 -22z"/>
<path d="M2839 4753 c-13 -16 -12 -17 4 -4 16 13 21 21 13 21 -2 0 -10 -8 -17
-17z"/>
<path d="M1820 4739 c-6 -11 -10 -27 -8 -35 2 -8 8 1 14 20 12 40 10 46 -6 15z"/>
<path d="M1953 4753 c9 -2 25 -2 35 0 9 3 1 5 -18 5 -19 0 -27 -2 -17 -5z"/>
<path d="M2011 4747 c2 -1 13 -9 24 -17 19 -14 19 -14 6 3 -7 9 -18 17 -24 17
-6 0 -8 -1 -6 -3z"/>
<path d="M2178 4723 c12 -2 30 -2 40 0 9 3 -1 5 -23 4 -22 0 -30 -2 -17 -4z"/>
<path d="M2248 4723 c7 -3 16 -2 19 1 4 3 -2 6 -13 5 -11 0 -14 -3 -6 -6z"/>
<path d="M2338 4723 c12 -2 32 -2 45 0 12 2 2 4 -23 4 -25 0 -35 -2 -22 -4z"/>
<path d="M2458 4723 c28 -2 76 -2 105 0 28 2 5 3 -53 3 -58 0 -81 -1 -52 -3z"/>
<path d="M6789 4679 c-35 -28 -66 -53 -68 -55 -2 -2 110 -4 250 -4 l254 0 -57
55 -56 55 -130 0 -129 0 -64 -51z"/>
<path d="M2769 4683 l-34 -38 38 34 c20 19 37 36 37 38 0 8 -8 0 -41 -34z"/>
<path d="M1883 4653 c1 -28 4 -50 6 -47 6 6 30 -29 31 -43 0 -7 -8 -13 -17
-13 -12 0 -9 -5 11 -15 41 -22 67 3 30 29 -12 9 -7 11 24 8 22 -2 43 1 46 7 4
6 12 11 17 11 6 0 8 -4 5 -9 -3 -5 1 -12 9 -15 12 -4 14 -2 6 11 -6 12 -6 25
1 38 8 15 4 13 -17 -7 -56 -55 -132 -27 -146 53 l-7 44 1 -52z"/>
<path d="M2062 4665 c0 -16 2 -22 5 -12 2 9 2 23 0 30 -3 6 -5 -1 -5 -18z"/>
<path d="M2137 4621 c-9 -12 -9 -13 1 -7 7 4 124 8 260 9 249 1 215 5 -86 9
-133 3 -166 0 -175 -11z"/>
<path d="M1810 4615 c0 -21 41 -76 72 -95 83 -50 200 -24 240 55 9 16 5 15
-18 -6 -16 -15 -36 -24 -44 -22 -13 4 -13 3 0 -6 23 -16 -54 -44 -99 -36 -46
9 -113 43 -106 55 3 5 -1 12 -8 17 -8 4 -19 17 -25 28 -6 11 -12 16 -12 10z"/>
<path d="M1869 4581 c6 -10 7 -22 3 -26 -4 -5 -1 -5 6 -1 9 5 9 12 2 27 -6 10
-13 19 -16 19 -2 0 0 -8 5 -19z"/>
<path d="M1971 4543 c0 -13 2 -14 6 -4 4 9 8 10 12 3 4 -6 17 -9 29 -5 12 3
19 9 16 15 -3 5 -12 4 -20 -3 -10 -8 -14 -8 -14 0 0 6 -7 11 -15 11 -8 0 -15
-8 -14 -17z"/>
<path d="M5325 4213 c-16 -3 -85 -29 -152 -59 -234 -103 -711 -288 -973 -377
-118 -40 -415 -121 -595 -162 -66 -16 -124 -32 -130 -37 -10 -9 -44 -141 -45
-176 l0 -22 1582 2 1582 3 83 400 c45 220 82 408 83 418 0 16 -39 17 -702 16
-387 -1 -716 -4 -733 -6z m1250 -101 c-6 -5 -31 -26 -57 -46 -45 -36 -75 -82
-161 -249 -8 -16 -17 -25 -20 -20 -2 4 -17 51 -32 103 -42 145 -10 130 -278
131 -128 1 -214 5 -192 8 31 5 40 10 40 26 0 12 9 22 25 26 14 4 -96 9 -245
10 -217 3 -171 5 240 9 281 3 550 6 600 8 49 1 85 -2 80 -6z"/>
</g>
</svg>
